<svg
   xmlns="http://www.w3.org/2000/svg"
   viewBox="0 0 666.66669 666.66669"
   height="666.66669"
   width="666.66669"
   xml:space="preserve"
   id="svg2"
   version="1.1"><defs
     id="defs6"><clipPath
       id="clipPath18"
       clipPathUnits="userSpaceOnUse"><path
         id="path16"
         d="M 0,500 H 500 V 0 H 0 Z" /></clipPath></defs><g
     transform="matrix(1.3333333,0,0,-1.3333333,0,666.66667)"
     id="g10"><g
       id="g12"><g
         clip-path="url(#clipPath18)"
         id="g14"><path
           id="path20"
           style="fill:#f0e6b8;fill-opacity:1;fill-rule:evenodd;stroke:none"
           d="M 0,0.445 H 500.081 V 500.526 H 0 Z" /><path
           id="path22"
           style="fill:#faf3d7;fill-opacity:1;fill-rule:evenodd;stroke:none"
           d="M 500.081,292.278 170.688,0.445 h 92.206 L 500.081,210.586 Z M 353.009,500.526 H 500.081 V 422.695 L 23.487,0.445 H 0 v 187.324 z" /><path
           id="path24"
           style="fill:#faf3d7;fill-opacity:1;fill-rule:evenodd;stroke:none"
           d="M 500.081,315.052 V 0.445 H 0 v 253.269 l 0.825,2.557 c 11.141,34.534 38.208,61.602 72.74,72.742 26.549,8.565 55.118,8.565 81.665,0 24.527,-7.913 51.412,-0.709 68.697,18.406 15.857,17.541 38.399,27.548 62.044,27.548 23.646,0 46.187,-10.007 62.046,-27.548 12.397,-13.711 31.683,-18.88 49.278,-13.203 29.53,9.527 61.712,6.112 88.584,-9.403 5.016,-2.896 9.761,-6.164 14.202,-9.761" /><path
           id="path26"
           style="fill:#fffcf0;fill-opacity:1;fill-rule:evenodd;stroke:none"
           d="m 23.487,0.445 378.217,335.091 c -1.475,-0.41 -2.946,-0.848 -4.409,-1.32 -17.595,-5.677 -36.881,-0.508 -49.278,13.203 -15.859,17.541 -38.4,27.548 -62.046,27.548 -23.645,0 -46.187,-10.007 -62.044,-27.548 -16.548,-18.301 -41.897,-25.682 -65.55,-19.333 L 0,187.769 V 0.445 Z M 500.081,292.278 V 210.586 L 262.894,0.445 h -92.206 z" /><path
           id="path28"
           style="fill:#fffcf0;fill-opacity:1;fill-rule:evenodd;stroke:none"
           d="M 500.081,281.866 V 0.445 H 0 v 233.67 l 0.825,1.992 c 11.141,26.882 38.208,47.952 72.74,56.625 26.549,6.668 55.118,6.668 81.665,0 24.527,-6.158 51.412,-0.55 68.697,14.33 15.857,13.654 38.399,21.444 62.044,21.444 23.646,0 46.187,-7.79 62.046,-21.444 12.397,-10.675 31.683,-14.697 49.278,-10.279 29.53,7.417 61.712,4.758 88.584,-7.32 5.016,-2.254 9.761,-4.799 14.202,-7.597" /><path
           id="path30"
           style="fill:#ffffff;fill-opacity:1;fill-rule:evenodd;stroke:none"
           d="M 23.487,0.445 360.804,299.3 c -4.728,1.955 -9.068,4.559 -12.787,7.762 -15.859,13.654 -38.4,21.444 -62.046,21.444 -23.645,0 -46.187,-7.79 -62.044,-21.444 -17.285,-14.88 -44.17,-20.488 -68.697,-14.33 -10.245,2.575 -20.792,4.153 -31.409,4.741 L 0,187.769 V 0.445 Z m 476.594,281.421 v -71.28 L 262.894,0.445 h -92.206 l 322.291,285.541 c 2.443,-1.303 4.812,-2.678 7.102,-4.12" /><path
           id="path32"
           style="fill:#94ab13;fill-opacity:1;fill-rule:evenodd;stroke:none"
           d="m 293.585,469.136 c -39.181,0 -70.943,-11.028 -70.943,-24.631 0,-11.63 23.218,-21.376 54.437,-23.959 -1.373,-2.335 -2.114,-4.818 -2.114,-7.396 0,-13.523 20.39,-24.494 45.617,-24.593 -5.073,-3.077 -8.023,-6.756 -8.023,-10.708 0,-10.809 22.056,-19.572 49.262,-19.572 27.208,0 49.264,8.763 49.264,19.572 0,2.719 -1.398,5.31 -3.921,7.663 6.522,-1.791 13.98,-2.807 21.901,-2.807 25.581,0 46.32,10.589 46.32,23.651 0,13.063 -20.739,23.653 -46.32,23.653 -5.659,0 -11.081,-0.519 -16.093,-1.468 -7.47,5.585 -19.438,9.206 -32.928,9.206 -8.11,0 -15.671,-1.309 -22.032,-3.566 4.181,3.14 6.518,6.637 6.518,10.324 0,13.603 -31.764,24.631 -70.945,24.631 m -175.233,-74.05 c 8.498,0 16.523,-1.025 23.627,-2.845 4.357,13.723 26.716,24.175 53.646,24.175 30.052,0 54.416,-13.015 54.416,-29.069 0,-10.39 -10.206,-19.504 -25.554,-24.645 8.605,-3.773 13.978,-9.123 13.978,-15.058 0,-11.425 -19.901,-20.686 -44.452,-20.686 -23.945,0 -43.466,8.811 -44.412,19.846 -8.74,-3.287 -19.547,-5.23 -31.249,-5.23 -29.057,0 -52.612,11.979 -52.612,26.756 0,14.777 23.555,26.756 52.612,26.756" /><path
           id="path34"
           style="fill:#aac21f;fill-opacity:1;fill-rule:evenodd;stroke:none"
           d="m 264.428,422.045 51.717,45.819 c 28.12,-3.272 48.385,-12.494 48.385,-23.359 0,-3.687 -2.337,-7.184 -6.518,-10.324 6.361,2.257 13.922,3.566 22.032,3.566 13.49,0 25.458,-3.621 32.928,-9.206 5.012,0.949 10.434,1.468 16.093,1.468 25.581,0 46.32,-10.59 46.32,-23.653 0,-2.76 -0.928,-5.41 -2.631,-7.872 l -8.418,-7.456 c -8.493,-5.093 -21.142,-8.323 -35.271,-8.323 -7.921,0 -15.379,1.016 -21.901,2.807 2.523,-2.353 3.921,-4.944 3.921,-7.663 0,-10.809 -22.056,-19.572 -49.264,-19.572 -27.206,0 -49.262,8.763 -49.262,19.572 0,3.952 2.95,7.631 8.023,10.708 -25.227,0.099 -45.617,11.07 -45.617,24.593 0,2.578 0.741,5.061 2.114,7.396 -4.388,0.363 -8.62,0.868 -12.651,1.499 m -22.209,-19.676 c 4.964,-4.385 7.822,-9.525 7.822,-15.022 0,-10.39 -10.206,-19.504 -25.554,-24.645 8.605,-3.773 13.978,-9.123 13.978,-15.058 0,-11.425 -19.901,-20.686 -44.452,-20.686 -11.825,0 -22.567,2.15 -30.53,5.653 z" /><path
           id="path36"
           style="fill:#94ab13;fill-opacity:1;fill-rule:evenodd;stroke:none"
           d="M 500.081,232.531 V 0.445 H 0 v 201.741 l 25.085,21.408 c 28.844,24.615 71.301,24.615 100.144,0 21.843,-18.644 53.998,-18.644 75.843,0 36.477,31.13 90.173,31.13 126.651,0 17.814,-15.205 44.039,-15.205 61.853,0 23.699,20.224 55.837,27.49 85.931,19.426 8.755,-2.345 17.009,-5.904 24.574,-10.489" /><path
           id="path38"
           style="fill:#aac419;fill-opacity:1;fill-rule:evenodd;stroke:none"
           d="m 23.487,0.445 272.355,241.3 c -31.766,10.804 -67.929,4.754 -94.77,-18.151 -21.845,-18.644 -54,-18.644 -75.843,0 -18.682,15.942 -43.074,21.554 -65.781,16.846 L 0,187.769 V 0.445 Z M 500.081,232.531 V 210.586 L 262.894,0.445 h -92.206 l 277.383,245.753 c 9.138,0.284 18.379,-0.752 27.436,-3.178 8.755,-2.345 17.009,-5.904 24.574,-10.489" /><path
           id="path40"
           style="fill:#7d910b;fill-opacity:1;fill-rule:evenodd;stroke:none"
           d="M 500.081,196.253 V 41.527 H 0 v 134.495 l 25.085,14.272 c 28.844,16.409 71.301,16.409 100.144,0 21.843,-12.43 53.998,-12.43 75.843,0 36.477,20.754 90.173,20.754 126.651,0 17.814,-10.136 44.039,-10.136 61.853,0 23.699,13.483 55.837,18.326 85.931,12.951 8.755,-1.564 17.009,-3.935 24.574,-6.992" /><path
           id="path42"
           style="fill:#94ab13;fill-opacity:1;fill-rule:evenodd;stroke:none"
           d="m 69.855,41.527 185.137,164.028 c -19.33,-1.244 -38.221,-6.328 -53.92,-15.261 -21.845,-12.43 -54,-12.43 -75.843,0 -28.843,16.409 -71.3,16.409 -100.144,0 L 0,176.022 V 41.527 Z m 239.409,0 h -92.205 l 163.245,144.632 c 3.264,1.112 6.381,2.488 9.272,4.135 23.699,13.483 55.837,18.326 85.931,12.951 4.441,-0.793 8.755,-1.794 12.914,-2.988 z" /><path
           id="path44"
           style="fill:#bd591e;fill-opacity:1;fill-rule:evenodd;stroke:none"
           d="M 500.081,156.943 V 0.445 L 0,19.185 v 130.751 c 107.575,13.092 245.634,18.211 396.202,12.57 35.4,-1.326 70.092,-3.204 103.879,-5.563" /><path
           id="path46"
           style="fill:#d46e33;fill-opacity:1;fill-rule:evenodd;stroke:none"
           d="M 42.826,17.579 208.073,163.983 C 131.159,162.175 60.722,157.325 0,149.936 V 19.185 Z m 229.692,-8.607 -88.464,3.315 171.001,151.502 c 13.6,-0.338 27.32,-0.767 41.147,-1.283 15.89,-0.595 31.638,-1.301 47.223,-2.113 z" /><path
           id="path48"
           style="fill:#a6450d;fill-opacity:1;fill-rule:evenodd;stroke:none"
           d="M 500.081,118.618 V 20.128 L 0,8.872 v 116.132 c 47.356,3.287 96.817,5.584 147.726,6.731 130.835,2.945 252.202,-2.1 352.355,-13.117" /><path
           id="path50"
           style="fill:#bd5011;fill-opacity:1;fill-rule:evenodd;stroke:none"
           d="M 33.857,9.633 0,8.872 v 116.132 c 47.356,3.287 96.817,5.584 147.726,6.731 8.194,0.185 16.35,0.338 24.466,0.46 z m 245.648,5.529 -94.609,-2.129 133.175,117.989 c 30.145,-0.969 59.355,-2.386 87.443,-4.22 z" /><path
           id="path52"
           style="fill:#6e2800;fill-opacity:1;fill-rule:evenodd;stroke:none"
           d="m 143.607,481.086 h 31.246 C 162.012,335.165 165.432,203.531 169.161,63.414 h -36.432 c 9.442,160.951 14.28,336.854 10.878,417.672 m 203.604,0 h 31.244 c -9.354,-145.921 -2.785,-277.557 4.29,-417.672 h -36.431 c 5.595,160.951 6.229,336.855 0.897,417.672 m 152.87,0 H 471.897 C 489.08,335.165 484.503,203.529 479.514,63.414 h 20.567 z M 0,481.086 H 33.109 C 12.923,335.165 18.302,203.529 24.163,63.414 H 0 Z" /><path
           id="path54"
           style="fill:#9e410b;fill-opacity:1;fill-rule:evenodd;stroke:none"
           d="m 483.962,277.998 16.119,14.28 V 210.586 L 483.47,195.872 c 0.509,27.361 0.73,54.678 0.492,82.126 M 349.013,158.435 377.111,183.33 c 1.043,-26.058 2.267,-52.184 3.565,-78.533 l -33.98,-30.106 c 0.919,27.737 1.695,55.835 2.317,83.744 m 24.878,152.46 -23.074,-20.443 c 0.354,79.191 -0.8,148.09 -3.606,190.634 h 31.244 c -3.754,-58.54 -4.941,-114.78 -4.564,-170.191 m 126.19,111.8 -20.941,-18.552 c -1.801,25.28 -4.173,50.882 -7.243,76.943 h 28.184 z m -356.78,-107.966 23.447,20.774 c -1.803,-69.831 -0.874,-138.017 0.761,-207.457 l -32.78,-29.043 c 3.978,73.936 6.95,149.294 8.572,215.726 M 19.327,204.892 c 0.89,-46.773 2.835,-93.631 4.836,-141.478 H 0 v 124.355 z" /><path
           id="path56"
           style="fill:#8c3604;fill-opacity:1;fill-rule:evenodd;stroke:none"
           d="M 500.081,100.661 V 0.445 L 0,0.445 V 68.78 c 113.534,19.766 275.668,32.139 455.711,32.139 14.919,0 29.709,-0.092 44.37,-0.258" /><path
           id="path58"
           style="fill:#a6450d;fill-opacity:1;fill-rule:evenodd;stroke:none"
           d="M 23.487,0.445 H 0 V 68.78 c 35.227,6.134 75.137,11.555 118.805,16.116 z m 239.407,0 h -92.206 l 108.78,96.375 c 31.021,1.481 63.053,2.58 95.889,3.265 z" /><path
           id="path60"
           style="fill:#bd591e;fill-opacity:1;fill-rule:evenodd;stroke:none"
           d="M 500.081,82.401 V 41.422 C 485.42,41.49 470.63,41.527 455.711,41.527 275.668,41.527 113.534,36.469 0,28.388 V 56.33 c 113.534,16.163 275.668,26.281 455.711,26.281 14.919,0 29.709,-0.074 44.37,-0.21" /><path
           id="path62"
           style="fill:#d1692c;fill-opacity:1;fill-rule:evenodd;stroke:none"
           d="M 59.2,32.085 C 38.269,30.938 18.486,29.704 0,28.388 V 56.33 c 29.967,4.267 63.324,8.11 99.499,11.459 z m 248.747,8.275 c -32.598,-0.525 -64.189,-1.221 -94.545,-2.071 l 45.269,40.107 c 30.904,1.365 62.887,2.417 95.736,3.128 z" /><path
           id="path64"
           style="fill:#6b7d05;fill-opacity:1;fill-rule:evenodd;stroke:none"
           d="m 0,500.526 h 500.081 v -73.151 c -11.929,-8.286 -29.566,-13.532 -49.247,-13.532 -24.748,0 -46.266,8.291 -57.259,20.493 -11.274,-13.114 -30.3,-21.731 -51.871,-21.731 -30.905,0 -56.583,17.685 -61.728,40.951 -8.145,-3.371 -17.439,-5.766 -27.445,-6.907 0.004,-0.253 0.011,-0.505 0.011,-0.76 0,-24.537 -24.428,-44.43 -54.564,-44.43 -8.624,0 -16.777,1.632 -24.029,4.533 -5.873,-18.03 -22.459,-31.025 -42.005,-31.025 -12.238,0 -23.317,5.096 -31.334,13.334 -8.5,-6.097 -19.334,-9.753 -31.137,-9.753 -22.059,0 -40.743,12.768 -47.098,30.392 C 15.838,404.984 8.214,402.409 0,401.676 Z" /><path
           id="path66"
           style="fill:#4f1d00;fill-opacity:1;fill-rule:evenodd;stroke:none"
           d="M 464.676,500.526 H 385.845 C 409.466,325.813 392.912,168.207 375.077,0.445 H 467 c -14.141,192.707 -15.765,403.318 -2.324,500.081" /><path
           id="path68"
           style="fill:#4f1d00;fill-opacity:1;fill-rule:evenodd;stroke:none"
           d="m 63.635,500.526 h 65.944 C 102.476,325.813 109.699,168.207 117.568,0.445 H 40.674 c 19.929,192.707 30.14,403.318 22.961,500.081" /><path
           id="path70"
           style="fill:#505e03;fill-opacity:1;fill-rule:evenodd;stroke:none"
           d="M 0,500.526 H 500.081 V 463.95 c -11.929,-4.142 -29.566,-6.765 -49.247,-6.765 -24.748,0 -46.266,4.145 -57.259,10.246 -11.274,-6.557 -30.3,-10.866 -51.871,-10.866 -30.905,0 -56.583,8.843 -61.728,20.476 -8.145,-1.686 -17.439,-2.883 -27.445,-3.454 0.004,-0.126 0.011,-0.252 0.011,-0.379 0,-12.27 -24.428,-22.215 -54.564,-22.215 -8.624,0 -16.777,0.816 -24.029,2.266 -5.873,-9.015 -22.459,-15.512 -42.005,-15.512 -12.238,0 -23.317,2.547 -31.334,6.667 -8.5,-3.05 -19.334,-4.877 -31.137,-4.877 -22.059,0 -40.743,6.383 -47.098,15.196 C 15.838,452.756 8.214,451.468 0,451.101 Z" /></g></g></g></svg>