<?xml version="1.0" standalone="no"?>
<!DOCTYPE svg PUBLIC "-//W3C//DTD SVG 20010904//EN"
 "http://www.w3.org/TR/2001/REC-SVG-20010904/DTD/svg10.dtd">
<svg version="1.0" xmlns="http://www.w3.org/2000/svg"
 width="320.000000pt" height="320.000000pt" viewBox="0 0 320.000000 320.000000"
 preserveAspectRatio="xMidYMid meet">
<metadata>
Created by potrace 1.14, written by Peter Selinger 2001-2017
</metadata>
<g transform="translate(0.000000,320.000000) scale(0.100000,-0.100000)"
fill="#000000" stroke="none">
<path d="M1000 2711 c-124 -15 -296 -68 -410 -126 -154 -78 -311 -220 -389
-352 -142 -239 -118 -543 59 -757 22 -26 40 -55 40 -63 0 -27 -69 -146 -125
-218 -69 -88 -71 -93 -52 -113 15 -14 26 -15 108 -3 105 15 181 38 291 88 l77
35 91 -36 c110 -44 180 -62 324 -81 137 -19 204 -19 342 0 271 36 490 135 662
299 171 164 249 338 240 535 -18 359 -299 643 -758 766 -79 21 -123 26 -265
30 -93 2 -199 0 -235 -4z m-195 -512 c4 -10 -3 -56 -14 -101 -42 -168 -65
-388 -40 -388 6 0 45 9 87 19 43 10 96 22 118 25 37 5 42 3 47 -16 11 -42 -12
-53 -160 -78 -63 -10 -74 -15 -85 -38 -16 -32 -63 -42 -81 -18 -11 15 -20 14
-96 -9 -97 -29 -124 -31 -141 -10 -32 39 2 60 141 90 l75 16 26 202 c14 111
24 204 22 206 -2 2 -22 -7 -46 -20 -100 -53 -121 -62 -156 -63 -31 -1 -38 3
-40 21 -3 19 11 29 95 72 54 27 125 65 157 84 61 37 81 38 91 6z m995 -25 c0
-8 -4 -22 -10 -32 -30 -53 -77 -432 -54 -432 5 0 45 9 89 19 44 11 98 21 120
23 37 3 40 1 43 -24 4 -34 -12 -42 -108 -58 -110 -17 -138 -28 -142 -53 -4
-27 -52 -36 -76 -14 -15 13 -26 12 -97 -9 -99 -29 -117 -29 -141 -3 -19 21
-18 21 4 39 12 10 48 24 80 30 31 6 75 16 97 23 l39 12 24 198 c14 109 22 200
19 203 -3 3 -39 -13 -80 -35 -44 -25 -90 -42 -113 -44 -35 -2 -39 0 -39 22 0
21 15 33 110 81 61 31 130 68 155 83 l45 27 18 -21 c9 -12 17 -28 17 -35z
m-547 -138 c23 -18 22 -51 -4 -77 -48 -48 -113 8 -75 65 18 29 50 33 79 12z
m-5 -338 c20 -20 14 -50 -15 -80 -45 -47 -83 -32 -83 32 0 44 15 60 55 60 17
0 36 -5 43 -12z"/>
<path d="M2467 1963 c-4 -3 -7 -40 -7 -82 0 -388 -307 -762 -755 -921 -171
-60 -342 -89 -527 -90 -70 0 -118 -4 -118 -10 0 -16 114 -143 172 -192 315
-268 845 -345 1263 -183 108 42 117 42 203 2 107 -49 202 -74 304 -82 73 -6
89 -5 93 7 4 9 -21 50 -60 102 -69 92 -125 192 -125 225 0 10 16 38 35 61 49
58 99 152 127 235 33 101 33 280 0 380 -73 218 -247 401 -487 511 -85 38 -109
46 -118 37z"/>
</g>
</svg>
